<svg width="135" height="135" viewBox="0 0 135 135" fill="none" xmlns="http://www.w3.org/2000/svg">
<path d="M70.1726 30.9741L66.1732 32.3072C67.0802 35.0304 67.5274 37.8908 67.5021 40.8144C67.4431 47.8934 64.6376 54.5654 59.6025 59.6004C54.5674 64.6355 47.8955 67.441 40.8354 67.5001H40.597V71.7188H40.8544C49.0472 71.6492 56.7633 68.405 62.5873 62.5831C68.4113 56.7612 71.6513 49.043 71.7188 40.8502C71.7483 37.4604 71.2273 34.1382 70.1726 30.9741Z" fill="#212529"/>
<path d="M122.344 120.234H112.963L98.4867 97.1578C98.9107 95.7825 99.1406 94.3249 99.1406 92.8125C99.1406 89.2856 97.894 86.0477 95.8247 83.5038C96.6115 81.8395 97.0312 80.0191 97.0312 78.1523C97.0312 74.8005 95.7255 71.6491 93.3546 69.2782L77.8381 53.7595C82.4723 40.6477 79.9685 25.6542 70.2949 14.8458C71.202 13.692 71.7188 12.2934 71.7188 10.8021C71.7188 7.17187 68.7656 4.21875 65.0109 4.21875C63.2517 4.21875 61.598 4.9043 60.3555 6.14672L53.9494 12.5529L18.822 8.94586C18.071 5.05828 14.6517 2.10938 10.5469 2.10938C5.89359 2.10938 2.10938 5.89359 2.10938 10.5469C2.10938 14.6496 5.05617 18.071 8.94375 18.822L12.5529 53.9494L6.14461 60.3577C4.90219 61.6001 4.21875 63.2538 4.21875 65.1354C4.21875 68.7656 7.17187 71.7188 10.8021 71.7188C12.2681 71.7188 13.6898 71.1914 14.8395 70.2949C21.9291 76.6526 30.9656 80.1562 40.5907 80.1562C40.7004 80.1562 40.8101 80.1562 40.9177 80.1562C48.6021 80.093 55.9491 77.8191 62.2477 73.6699L72.5646 83.9869C70.7189 86.4506 69.6094 89.5008 69.6094 92.8125C69.6094 94.3249 69.8393 95.7825 70.2633 97.1578L55.7866 120.234H46.4062C40.5907 120.234 35.8594 124.966 35.8594 130.781V132.891H132.891V130.781C132.891 124.966 128.159 120.234 122.344 120.234ZM107.985 120.234H102.433L92.9834 104.785C94.2384 103.88 95.3416 102.786 96.2571 101.541L107.985 120.234ZM73.8281 92.8125C73.8281 86.997 78.5595 82.2656 84.375 82.2656C90.1905 82.2656 94.9219 86.997 94.9219 92.8125C94.9219 98.628 90.1905 103.359 84.375 103.359C78.5595 103.359 73.8281 98.628 73.8281 92.8125ZM84.375 107.578C86.0773 107.578 87.7078 107.274 89.2308 106.741L97.4869 120.234H71.2631L79.5171 106.741C81.0422 107.274 82.6727 107.578 84.375 107.578ZM34.7414 31.7587L17.7884 14.8057C18.0942 14.2868 18.3389 13.7362 18.5288 13.1541L50.104 16.3983L34.7414 31.7587ZM6.32812 10.5469C6.32812 8.22023 8.22023 6.32812 10.5469 6.32812C12.8735 6.32812 14.7656 8.22023 14.7656 10.5469C14.7656 12.8735 12.8735 14.7656 10.5469 14.7656C8.22023 14.7656 6.32812 12.8735 6.32812 10.5469ZM13.1562 18.5288C13.7362 18.3389 14.2889 18.0942 14.8057 17.7884L31.7587 34.7414L16.3983 50.0998L13.1562 18.5288ZM10.8021 67.5C9.49852 67.5 8.4375 66.439 8.4375 65.0109C8.4375 64.3887 8.69063 63.7791 9.12937 63.3382L63.3382 9.12937C63.7854 8.6843 64.3802 8.4375 65.1354 8.4375C66.439 8.4375 67.5 9.49852 67.5 10.8021C67.5 11.4349 67.2553 12.0277 66.8081 12.4748L12.4748 66.8081C12.034 67.2469 11.4244 67.5 10.8021 67.5ZM40.886 75.9375C40.7869 75.9375 40.6898 75.9375 40.5928 75.9375C32.1195 75.9375 24.1608 72.8937 17.8812 67.3671L67.3629 17.8875C79.3209 31.4951 78.7155 52.4159 65.5657 65.5657C58.9528 72.1765 50.1884 75.8595 40.886 75.9375ZM68.5484 68.5484C71.7209 65.3759 74.2057 61.7815 76.0767 57.9656L90.3719 72.263C91.9455 73.8344 92.8125 75.9269 92.8125 78.1523C92.8125 78.9476 92.6986 79.7323 92.4813 80.4832C90.1505 78.9476 87.3682 78.0469 84.375 78.0469C81.0633 78.0469 78.0152 79.1564 75.5494 81.0021L65.6902 71.1429C66.6773 70.3308 67.6308 69.4659 68.5484 68.5484ZM72.4929 101.541C73.4105 102.786 74.5137 103.88 75.7666 104.785L66.3166 120.234H60.7648L72.4929 101.541ZM40.4388 128.672C41.31 126.217 43.6556 124.453 46.4062 124.453H122.344C125.094 124.453 127.44 126.217 128.311 128.672H40.4388Z" fill="#212529"/>
<path d="M84.375 99.1406C87.8639 99.1406 90.7031 96.3014 90.7031 92.8125C90.7031 89.3236 87.8639 86.4844 84.375 86.4844C80.8861 86.4844 78.0469 89.3236 78.0469 92.8125C78.0469 96.3014 80.8861 99.1406 84.375 99.1406ZM84.375 90.7031C85.5394 90.7031 86.4844 91.6502 86.4844 92.8125C86.4844 93.9748 85.5394 94.9219 84.375 94.9219C83.2106 94.9219 82.2656 93.9748 82.2656 92.8125C82.2656 91.6502 83.2106 90.7031 84.375 90.7031Z" fill="#212529"/>
</svg>
