<svg width="135" height="135" viewBox="0 0 135 135" fill="none" xmlns="http://www.w3.org/2000/svg">
<g clip-path="url(#clip0_2081_1100)">
<path d="M19.6875 95.625H53.4375C54.9293 95.625 56.3601 95.0324 57.415 93.9775C58.4699 92.9226 59.0625 91.4918 59.0625 90C59.0625 88.5082 58.4699 87.0774 57.415 86.0225C56.3601 84.9676 54.9293 84.375 53.4375 84.375H25.3125V28.125H109.688V84.375H81.5625C80.0707 84.375 78.6399 84.9676 77.585 86.0225C76.5301 87.0774 75.9375 88.5082 75.9375 90C75.9375 91.4918 76.5301 92.9226 77.585 93.9775C78.6399 95.0324 80.0707 95.625 81.5625 95.625H115.313C116.804 95.625 118.235 95.0324 119.29 93.9775C120.345 92.9226 120.938 91.4918 120.938 90V22.5C120.938 21.0082 120.345 19.5774 119.29 18.5225C118.235 17.4676 116.804 16.875 115.313 16.875H19.6875C18.1957 16.875 16.7649 17.4676 15.71 18.5225C14.6551 19.5774 14.0625 21.0082 14.0625 22.5V90C14.0625 91.4918 14.6551 92.9226 15.71 93.9775C16.7649 95.0324 18.1957 95.625 19.6875 95.625Z" fill="#212529"/>
<path d="M123.75 106.875H11.25C9.75816 106.875 8.32742 107.468 7.27252 108.523C6.21763 109.577 5.625 111.008 5.625 112.5C5.625 113.992 6.21763 115.423 7.27252 116.477C8.32742 117.532 9.75816 118.125 11.25 118.125H123.75C125.242 118.125 126.673 117.532 127.727 116.477C128.782 115.423 129.375 113.992 129.375 112.5C129.375 111.008 128.782 109.577 127.727 108.523C126.673 107.468 125.242 106.875 123.75 106.875Z" fill="#212529"/>
<path d="M89.7188 59.9062C89.952 58.7023 90.0464 57.4755 90 56.25C90.0464 55.0245 89.952 53.7977 89.7188 52.5938L83.5313 51.1875C83.2785 50.2056 82.9004 49.2603 82.4063 48.375L85.7813 43.0312C84.3863 41.0746 82.6754 39.3637 80.7188 37.9687L75.375 41.3437L72.5625 40.2188L71.1563 34.0312H63.8438L62.4375 40.2188L59.625 41.3437L54.2813 37.9687C52.3246 39.3637 50.6137 41.0746 49.2188 43.0312L52.5938 48.375C52.0996 49.2603 51.7215 50.2056 51.4688 51.1875L45.2813 52.5938C45.048 53.7977 44.9536 55.0245 45 56.25C44.9536 57.4755 45.048 58.7023 45.2813 59.9062L51.4688 61.3125C51.7215 62.2944 52.0996 63.2397 52.5938 64.125L49.2188 69.4688C50.6137 71.4254 52.3246 73.1363 54.2813 74.5313L59.625 71.1562L62.4375 72.2813L63.8438 78.4688H71.1563L72.5625 72.2813L75.375 71.1562L80.7188 74.5313C82.6754 73.1363 84.3863 71.4254 85.7813 69.4688L82.4063 64.125C82.9004 63.2397 83.2785 62.2944 83.5313 61.3125L89.7188 59.9062ZM67.5 61.875C66.3875 61.875 65.2999 61.5451 64.3749 60.927C63.4499 60.3089 62.7289 59.4304 62.3032 58.4026C61.8774 57.3748 61.766 56.2438 61.9831 55.1526C62.2001 54.0615 62.7359 53.0592 63.5225 52.2725C64.3092 51.4859 65.3115 50.9501 66.4026 50.7331C67.4938 50.516 68.6248 50.6274 69.6526 51.0532C70.6804 51.4789 71.5589 52.1999 72.177 53.1249C72.7951 54.0499 73.125 55.1375 73.125 56.25C73.125 57.7418 72.5324 59.1726 71.4775 60.2275C70.4226 61.2824 68.9918 61.875 67.5 61.875Z" fill="#212529"/>
</g>
<defs>
<clipPath id="clip0_2081_1100">
<rect width="135" height="135" fill="white"/>
</clipPath>
</defs>
</svg>
