<svg width="135" height="135" viewBox="0 0 135 135" fill="none" xmlns="http://www.w3.org/2000/svg">
<path d="M67.5 83.7V94.5M67.5 45.9V35.1M67.5 35.1C71.9734 35.1 75.6 31.4735 75.6 27C75.6 22.5265 71.9734 18.9 67.5 18.9C63.0267 18.9 59.4 22.5265 59.4 27C59.4 31.4735 63.0267 35.1 67.5 35.1ZM110.7 110.7V105.3C110.7 99.3352 105.865 94.5 99.9001 94.5H35.1C29.1354 94.5 24.3 99.3352 24.3 105.3V110.7H110.7ZM62.1 64.8C62.1 67.7824 59.6825 70.2 56.7 70.2C53.7177 70.2 51.3 67.7824 51.3 64.8C51.3 61.8176 53.7177 59.4 56.7 59.4C59.6825 59.4 62.1 61.8176 62.1 64.8ZM83.7 64.8C83.7 67.7824 81.2825 70.2 78.3 70.2C75.3176 70.2 72.9 67.7824 72.9 64.8C72.9 61.8176 75.3176 59.4 78.3 59.4C81.2825 59.4 83.7 61.8176 83.7 64.8ZM45.9 83.7H89.1C95.0649 83.7 99.9001 78.8649 99.9001 72.9V56.7C99.9001 50.7353 95.0649 45.9 89.1 45.9H45.9C39.9354 45.9 35.1 50.7353 35.1 56.7V72.9C35.1 78.8649 39.9354 83.7 45.9 83.7Z" stroke="#212529" stroke-width="4.8"/>
</svg>
