<svg width="100" height="100" viewBox="0 0 100 100" fill="none" xmlns="http://www.w3.org/2000/svg">
<path d="M97.077 42.3077C97.077 44 95.6924 45.3846 94.0001 45.3846H58.6155C56.9232 45.3846 55.5386 44 55.5386 42.3077V11.5385C55.5386 9.84616 56.9232 8.46154 58.6155 8.46154H94.0001C95.6924 8.46154 97.077 9.84616 97.077 11.5385V42.3077Z" stroke="#F8F9FA" stroke-width="3.07692"/>
<path d="M55.5386 36.1538H97.077" stroke="#F8F9FA" stroke-width="3.07692"/>
<path d="M92.3077 14.6154H60V36.1538H92.3077V14.6154Z" stroke="#F8F9FA" stroke-width="3.07692"/>
<path d="M27.8462 23.8462H50.9231" stroke="#F8F9FA" stroke-width="3.07692"/>
<path d="M23.2307 28.4615V39.2308" stroke="#F8F9FA" stroke-width="3.07692"/>
<path d="M75.5386 74.6154H55.5386" stroke="#F8F9FA" stroke-width="3.07692"/>
<path d="M80.1538 70V50" stroke="#F8F9FA" stroke-width="3.07692"/>
<path d="M23.0769 28.4615C25.6259 28.4615 27.6923 26.3952 27.6923 23.8462C27.6923 21.2972 25.6259 19.2308 23.0769 19.2308C20.5279 19.2308 18.4615 21.2972 18.4615 23.8462C18.4615 26.3952 20.5279 28.4615 23.0769 28.4615Z" stroke="#F8F9FA" stroke-width="3.07692"/>
<path d="M79.9999 79.2308C82.5489 79.2308 84.6153 77.1644 84.6153 74.6154C84.6153 72.0664 82.5489 70 79.9999 70C77.4509 70 75.3845 72.0664 75.3845 74.6154C75.3845 77.1644 77.4509 79.2308 79.9999 79.2308Z" stroke="#F8F9FA" stroke-width="3.07692"/>
<path d="M26.1538 91.5385C39.7485 91.5385 50.7692 80.8622 50.7692 67.6923C50.7692 54.5224 39.7485 43.8462 26.1538 43.8462C12.5591 43.8462 1.53845 54.5224 1.53845 67.6923C1.53845 80.8622 12.5591 91.5385 26.1538 91.5385Z" stroke="#F8F9FA" stroke-width="3.07692"/>
<path d="M26.4616 43.0769C26.4616 43.0769 27.2308 45.3846 24.9231 46.1539C24.1539 46.9231 22.6154 46.9231 23.3847 47.6923C24.1539 48.4615 24.1539 49.2308 24.1539 49.2308C24.1539 49.2308 23.5385 52.3077 21.8462 53.0769C20.3077 53.8462 16.9231 53.6923 16.1539 53.6923C15.3847 53.6923 16.1539 50.6154 16.1539 50.6154L19.3847 49.0769C19.3847 49.0769 20.1539 47.5385 19.3847 47.5385C18.6154 47.5385 17.077 45.2308 17.077 45.2308" stroke="#F8F9FA" stroke-width="3.07692"/>
<path d="M10.6153 48.3077C12.6153 53.5385 10.6153 55.8462 10.6153 55.8462C10.6153 55.8462 9.07689 55.8462 9.07689 57.3846C9.07689 58.9231 8.30765 57.3846 9.07689 58.9231C9.84612 60.4615 9.07689 62 9.07689 62L6.76919 63.5385C6.76919 63.5385 5.23073 63.5385 4.4615 64.3077C3.69227 65.0769 3.53842 65.0769 3.69227 65.8462C3.99996 67.8462 2.15381 68.9231 2.15381 68.9231" stroke="#F8F9FA" stroke-width="3.07692"/>
<path d="M1.69226 70.9231C2.46149 71.6923 5.84611 71.6923 5.84611 71.6923C5.84611 71.6923 7.38457 70.9231 8.1538 71.6923C8.92303 72.4615 8.92303 74.7692 8.92303 74.7692C8.92303 74.7692 10.4615 77.0769 11.2307 77.0769C12 77.0769 12.7692 77.8462 13.5384 77.8462C14.3076 77.8462 15.0769 78.6154 15.0769 78.6154C15.0769 78.6154 15.8461 80.9231 15.0769 80.9231C14.3076 80.9231 14.3076 81.6923 14.3076 81.6923C14.3076 81.6923 14.3076 84.7692 15.8461 85.3846C17.3846 86.1538 21.3846 87.6923 21.3846 88.4615C21.3846 89.2308 22.923 90.7692 26.1538 90.7692" stroke="#F8F9FA" stroke-width="3.07692"/>
<path d="M50.9231 69.5385C50.9231 69.5385 48.6154 67.2308 48.6154 68C48.6154 68.7692 47.8462 69.5385 47.8462 71.0769C47.8462 72.6154 47.0769 74.7692 47.0769 74.7692L45.5385 73.2308C45.5385 73.2308 41.5385 75.5385 41.5385 76.3077C41.5385 77.0769 38.3077 79.3846 37.5385 80.7692C36.7692 82.3077 35.2308 83.0769 34.3077 84.4615C33.5385 86 32.7692 85.2308 32.7692 84.4615C32.7692 83.6923 30.6154 81.0769 32.7692 79.2308C33.5385 78.4615 34.3077 78.4615 33.5385 77.6923C32.7692 76.9231 32 76.9231 32 76.1539V73.0769C32 73.0769 30.4615 70.7692 29.6923 71.5385L28.1538 73.0769C28.1538 73.0769 25.6923 73.0769 24.9231 70.7692C24.3077 68.6154 26.4615 67.0769 26.4615 67.0769L25.6923 64C25.6923 64 28 61.6923 28 60.9231C28 60.1539 27.2308 55.6923 28.7692 56.4615C30.3077 57.2308 33.5385 58 33.5385 57.2308C33.5385 56.4615 34.3077 54.9231 35.0769 54.9231H36.6154L39.8462 51.8462C39.8462 51.8462 36.6154 51.0769 36.6154 50.3077C36.6154 49.5385 36.6154 48.7692 37.3846 48C38.1538 47.2308 39.6923 47.2308 39.6923 47.2308" stroke="#F8F9FA" stroke-width="3.07692"/>
</svg>
